# xmcd
#
# Track frame offsets:
#        150
#        19045
#        41573
#        58618
#        77415
#        101023
#        126638
#        156878
#        172945
#        203128
#        216598
#        240788
#
# Disc length: 3477 seconds
#
# Revision: 3
# Processed by: cddbd v1.5.1PL0 Copyright (c) Steve Scherf et al.
# Submitted via: ExactAudioCopy v0.95b3
#
DISCID=9b0d930c
DTITLE=Eliane Elias - Dreamer
DYEAR=2004
DGENRE=Vocal
TTITLE0=call me
TTITLE1=baubles, bangles and beads
TTITLE2=photograph
TTITLE3=movin' me on
TTITLE4=so nice
TTITLE5=that's all
TTITLE6=tangerine
TTITLE7=dreamer
TTITLE8=time alone
TTITLE9=doralice
TTITLE10=a house is not a home
TTITLE11=tell me no lies
EXTD=
EXTT0=
EXTT1=
EXTT2=
EXTT3=
EXTT4=
EXTT5=
EXTT6=
EXTT7=
EXTT8=
EXTT9=
EXTT10=
EXTT11=
PLAYORDER=
